HIERARCHY
ROOT Hips
{
    OFFSET 0.000000 0.000000 0.000000
    CHANNELS 6 Xposition Yposition Zposition Zrotation Xrotation Yrotation
    JOINT Spine
    {
        OFFSET -0.000000 14.517291 0.000000
        CHANNELS 3 Zrotation Xrotation Yrotation
        JOINT Spine1
        {
            OFFSET -0.000000 37.558300 0.000000
            CHANNELS 3 Zrotation Xrotation Yrotation
            JOINT Neck
            {
                OFFSET -0.000000 37.404057 3.400369
                CHANNELS 3 Zrotation Xrotation Yrotation
                JOINT Head
                {
                    OFFSET -0.000000 24.785618 -3.540803
                    CHANNELS 3 Zrotation Xrotation Yrotation
                    End Site
                    {
                        OFFSET -0.000000 35.408028 0.000000
                    }
                }
            }
            JOINT LeftShoulder
            {
                OFFSET 6.992933 33.973492 -0.192664
                CHANNELS 3 Zrotation Xrotation Yrotation
                JOINT LeftArm
                {
                    OFFSET 21.527611 0.000000 0.000000
                    CHANNELS 3 Zrotation Xrotation Yrotation
                    JOINT LeftForeArm
                    {
                        OFFSET 56.353916 0.000000 0.000000
                        CHANNELS 3 Zrotation Xrotation Yrotation
                        JOINT LeftHand
                        {
                            OFFSET 47.774071 0.000000 0.000000
                            CHANNELS 3 Zrotation Xrotation Yrotation
                            End Site
                            {
                                OFFSET 26.556021 0.000000 0.000000
                            }
                        }
                    }
                }
            }
            JOINT RightShoulder
            {
                OFFSET -7.065357 33.973492 -0.192664
                CHANNELS 3 Zrotation Xrotation Yrotation
                JOINT RightArm
                {
                    OFFSET -21.527611 0.000000 0.000000
                    CHANNELS 3 Zrotation Xrotation Yrotation
                    JOINT RightForeArm
                    {
                        OFFSET -56.353916 0.000000 0.000000
                        CHANNELS 3 Zrotation Xrotation Yrotation
                        JOINT RightHand
                        {
                            OFFSET -47.774071 0.000000 0.000000
                            CHANNELS 3 Zrotation Xrotation Yrotation
                            End Site
                            {
                                OFFSET -26.556021 0.000000 0.000000
                            }
                        }
                    }
                }
            }
        }
    }
    JOINT LeftUpLeg
    {
        OFFSET 17.704014 0.000000 0.000000
        CHANNELS 3 Zrotation Xrotation Yrotation
        JOINT LeftLeg
        {
            OFFSET -0.000000 -81.181816 0.000000
            CHANNELS 3 Zrotation Xrotation Yrotation
            JOINT LeftFoot
            {
                OFFSET -0.000000 -62.821102 0.000000
                CHANNELS 3 Zrotation Xrotation Yrotation
                JOINT LeftToeBase
                {
                    OFFSET -0.000000 -11.507608 26.556021
                    CHANNELS 3 Zrotation Xrotation Yrotation
                    End Site
                    {
                        OFFSET -0.000000 0.000000 7.081605
                    }
                }
            }
        }
    }
    JOINT RightUpLeg
    {
        OFFSET -17.704014 0.000000 0.000000
        CHANNELS 3 Zrotation Xrotation Yrotation
        JOINT RightLeg
        {
            OFFSET -0.000000 -81.181816 0.000000
            CHANNELS 3 Zrotation Xrotation Yrotation
            JOINT RightFoot
            {
                OFFSET -0.000000 -62.821102 0.000000
                CHANNELS 3 Zrotation Xrotation Yrotation
                JOINT RightToeBase
                {
                    OFFSET -0.000000 -11.507608 26.556021
                    CHANNELS 3 Zrotation Xrotation Yrotation
                    End Site
                    {
                        OFFSET -0.000000 0.000000 7.081605
                    }
                }
            }
        }
    }
}
MOTION
Frames:    11
Frame Time:    0.008333
-14.424367    153.601196    -30.257755    1.020464    0.246536    3.282118    -1.386688    0.175016    11.401870    -2.010692    -0.640833    3.788038    -0.837658    1.366197    -9.993662    10.105587    -0.914742    -8.780500    -0.359326    5.216488    -6.961916    -36.167507    19.799637    -52.014545    -1.257662    -28.478928    -124.007179    -7.232145    -30.064100    -8.642969    -1.776530    13.033268    1.944781    38.907444    13.271379    56.447533    -30.496246    -29.187174    48.635284    14.260072    -11.937065    33.571236    5.638665    -29.270615    -24.373564    -11.852037    21.541044    -17.380781    -7.442298    -0.716605    43.528515    0.000000    0.000000    0.000000    -0.037504    18.556227    -19.123665    2.312196    10.489553    -5.921354    5.150309    -22.987827    -4.810170    0.000000    0.000000    0.000000    
-14.298193    153.607040    -30.138454    1.079033    0.349381    3.264777    -1.405533    0.201559    11.382496    -2.011403    -0.568277    3.782748    -0.766714    1.334039    -9.944983    9.992602    -1.054375    -8.744043    -0.362980    5.226909    -6.996758    -36.175121    19.741379    -52.049488    -1.247649    -28.518335    -124.019455    -7.169677    -30.092585    -8.621861    -1.800276    12.995348    1.925353    38.849007    13.267836    56.500824    -30.450977    -29.241295    48.750355    14.251889    -11.978456    33.616795    5.513841    -29.368206    -24.411879    -11.874600    21.654472    -17.355772    -7.362776    -0.781310    43.536774    0.000000    0.000000    0.000000    -0.135980    18.536757    -19.129299    2.302299    10.401449    -5.970487    5.210729    -22.926247    -4.756608    0.000000    0.000000    0.000000    
-14.172413    153.614944    -30.025404    1.131170    0.460676    3.240071    -1.416076    0.278052    11.361095    -2.040343    -0.610266    3.774425    -0.763743    1.405239    -9.936454    10.017726    -1.232855    -8.716861    -0.374109    5.228097    -7.008348    -36.168873    19.764994    -52.066402    -1.177685    -28.618773    -123.970314    -7.217114    -30.067732    -8.706499    -1.786063    13.002692    1.937333    38.773766    13.236238    56.537704    -30.416903    -29.239405    48.841980    14.238255    -11.968961    33.602825    5.399508    -29.477478    -24.433786    -11.896223    21.770626    -17.338200    -7.297122    -0.844764    43.553623    0.000000    0.000000    0.000000    -0.230696    18.499992    -19.150700    2.281297    10.323558    -5.961847    5.273251    -22.858381    -4.721606    0.000000    0.000000    0.000000    
-14.054868    153.624496    -29.903688    1.170129    0.558976    3.238469    -1.406053    0.346618    11.327237    -2.068920    -0.621809    3.762547    -0.746104    1.368696    -9.889919    9.969821    -1.305407    -8.671487    -0.398933    5.235825    -7.028025    -36.167759    19.731112    -52.061539    -1.181408    -28.637966    -123.975609    -7.200348    -30.092855    -8.729492    -1.788065    12.961326    1.973499    38.822273    13.161044    56.502552    -30.297731    -29.188375    49.033539    14.229457    -11.913373    33.576740    5.295491    -29.574886    -24.468546    -11.925033    21.882570    -17.323404    -7.220647    -0.914967    43.557827    0.000000    0.000000    0.000000    -0.301547    18.484383    -19.174639    2.269224    10.237799    -5.960599    5.342792    -22.772785    -4.719572    0.000000    0.000000    0.000000    
-13.936090    153.633514    -29.784023    1.212079    0.651826    3.228825    -1.411092    0.400203    11.307941    -2.065750    -0.613150    3.756089    -0.727623    1.445613    -9.883958    9.921345    -1.522628    -8.657195    -0.428577    5.260890    -7.085510    -36.163101    19.697969    -52.055450    -1.087790    -28.755222    -123.938515    -7.309744    -30.044710    -8.779045    -1.827172    12.950527    1.998830    38.717297    13.232654    56.529846    -30.439924    -29.303522    49.004238    14.262818    -11.973438    33.572201    5.191167    -29.662010    -24.513212    -11.959308    21.984812    -17.274164    -7.134741    -0.969298    43.552292    0.000000    0.000000    0.000000    -0.378646    18.466827    -19.189468    2.256978    10.160734    -6.012974    5.427490    -22.688496    -4.660635    0.000000    0.000000    0.000000    
-13.811323    153.639313    -29.661375    1.272309    0.742714    3.221603    -1.422220    0.462864    11.291015    -2.084203    -0.590517    3.750513    -0.710376    1.396571    -9.854604    9.849909    -1.626195    -8.630868    -0.442697    5.254979    -7.088959    -36.171928    19.671114    -52.087254    -1.092092    -28.760277    -123.929611    -7.235179    -30.061981    -8.770465    -1.834859    12.907850    1.980536    38.746929    13.141863    56.555332    -30.336573    -29.219498    49.159859    14.203427    -11.900819    33.540730    5.062600    -29.737576    -24.579435    -11.976906    22.074411    -17.265387    -7.061139    -1.039577    43.570644    0.000000    0.000000    0.000000    -0.477708    18.449137    -19.221676    2.240765    10.100030    -5.972862    5.494190    -22.638855    -4.675820    0.000000    0.000000    0.000000    
-13.695828    153.645355    -29.549259    1.318536    0.851647    3.203660    -1.426242    0.522193    11.293362    -2.107625    -0.603539    3.750724    -0.672142    1.463435    -9.851131    9.787413    -1.858038    -8.623110    -0.464422    5.270888    -7.125190    -36.115902    19.714067    -52.108486    -0.983810    -28.949715    -123.882874    -7.437079    -30.053114    -8.859994    -1.839987    12.923927    1.956143    38.741474    13.075159    56.602333    -30.286356    -29.226933    49.272270    14.284640    -11.863743    33.607262    4.958973    -29.838808    -24.635416    -12.017927    22.165751    -17.208405    -6.980712    -1.094694    43.583054    0.000000    0.000000    0.000000    -0.563839    18.395155    -19.241581    2.221067    10.064864    -5.972916    5.573434    -22.591881    -4.651834    0.000000    0.000000    0.000000    
-13.582289    153.651199    -29.441353    1.360271    0.959785    3.189538    -1.411600    0.560084    11.282334    -2.180891    -0.585110    3.746892    -0.525950    1.448442    -9.811728    9.622513    -2.008100    -8.615402    -0.396487    5.296174    -7.139818    -36.179634    19.645416    -52.148956    -0.975710    -28.905668    -123.848183    -7.328098    -30.002665    -8.856234    -1.777651    12.836389    2.001139    38.679348    13.067396    56.540730    -30.295269    -29.265966    49.333786    14.353806    -11.850718    33.693680    4.851306    -29.945024    -24.693634    -12.039065    22.269302    -17.180429    -6.914553    -1.162159    43.600674    0.000000    0.000000    0.000000    -0.645551    18.333542    -19.267469    2.200678    10.038723    -6.000797    5.636898    -22.536625    -4.602346    0.000000    0.000000    0.000000    
-13.461980    153.652954    -29.333979    1.404778    1.059710    3.171624    -1.426237    0.636011    11.275502    -2.179515    -0.621107    3.743626    -0.459683    1.484822    -9.774701    9.493056    -2.199309    -8.590899    -0.417774    5.319879    -7.138068    -36.165760    19.683207    -52.169868    -0.889298    -29.020895    -123.800438    -7.430749    -29.962250    -8.962049    -1.783507    12.834474    2.015494    38.684166    12.979806    56.543808    -30.201418    -29.259794    49.483807    14.371751    -11.831698    33.722736    4.732663    -30.047878    -24.743158    -12.049706    22.392717    -17.159494    -6.849123    -1.234960    43.614014    0.000000    0.000000    0.000000    -0.741521    18.274679    -19.296877    2.189924    10.038330    -5.976327    5.684824    -22.510193    -4.601237    0.000000    0.000000    0.000000    
-13.345547    153.656082    -29.223019    1.451052    1.152786    3.149524    -1.454726    0.686244    11.270247    -2.149982    -0.601604    3.742165    -0.429945    1.467281    -9.747313    9.384627    -2.365928    -8.570279    -0.449548    5.296942    -7.179924    -36.218441    19.640673    -52.110844    -0.864267    -28.988926    -123.791092    -7.415142    -29.890272    -8.971682    -1.801907    12.769946    2.022038    38.620625    13.008807    56.556042    -30.268337    -29.302870    49.518665    14.348771    -11.852593    33.648544    4.616827    -30.140066    -24.793869    -12.061449    22.512009    -17.156343    -6.778183    -1.315038    43.654488    0.000000    0.000000    0.000000    -0.836300    18.221233    -19.319202    2.183724    10.034001    -5.991361    5.751132    -22.481970    -4.565917    0.000000    0.000000    0.000000    
-13.233238    153.658707    -29.106552    1.500533    1.232715    3.141815    -1.469744    0.725052    11.257764    -2.163755    -0.563228    3.738479    -0.337203    1.516760    -9.701803    9.254346    -2.606992    -8.537494    -0.424486    5.309485    -7.208028    -36.201756    19.668861    -52.130272    -0.759165    -29.131081    -123.732117    -7.411104    -29.855909    -9.030321    -1.792257    12.801317    2.024592    38.568295    12.919804    56.633717    -30.252586    -29.324894    49.568428    14.373850    -11.861818    33.645031    4.488979    -30.204983    -24.849667    -12.053346    22.608007    -17.123915    -6.702692    -1.381622    43.639847    0.000000    0.000000    0.000000    -0.925373    18.184612    -19.373859    2.169880    10.030092    -6.033983    5.826760    -22.435057    -4.498966    0.000000    0.000000    0.000000    
